<svg xmlns="http://www.w3.org/2000/svg" viewBox="0 0 300 313.3"><path d="M266.9 86.1c0-.1 0-.3-.1-.4v-.1c0-.2-.1-.3-.1-.5V85c0-.2-.1-.3-.2-.4v-.1c-.1-.1-.1-.3-.2-.4V84c-.1-.1-.1-.2-.2-.4 0 0 0-.1-.1-.1-.1-.1-.1-.2-.2-.3l-.1-.1-.3-.3-.1-.1-73.2-73.1c-.1-.1-.3-.2-.4-.4 0 0-.1 0-.1-.1-.1-.1-.2-.2-.3-.2 0 0-.1 0-.1-.1-.1-.1-.2-.2-.4-.2h-.1c-.1-.1-.3-.1-.4-.2-.2-.1-.3-.1-.5-.2s-.3-.1-.5-.1h-.1c-.2 0-.3-.1-.5-.1h-150c-3 0-5.5 2.5-5.5 5.5v286.4c0 3 2.5 5.5 5.5 5.5h222.8c3 0 5.5-2.5 5.5-5.5V86.6c-.1-.2-.1-.4-.1-.5zm-18.7-5h-54.4V26.7l54.4 54.4zm7.7 213.3H44.1V18.9h138.6v67.7c0 3 2.5 5.5 5.5 5.5h67.7v202.3z" fill="#a9c01b" stroke="#a9c01b" stroke-width="12" stroke-miterlimit="10"/><path d="M113.3 83.8c12.6 0 22.8-10.2 22.8-22.8s-10.2-22.8-22.8-22.8c-12.6 0-22.8 10.2-22.8 22.8 0 12.6 10.3 22.8 22.8 22.8zm0-34.7c6.5 0 11.8 5.3 11.8 11.8 0 6.5-5.3 11.8-11.8 11.8-6.5 0-11.8-5.3-11.8-11.8 0-6.4 5.3-11.8 11.8-11.8zm-25.5 76.4c3 0 5.5-2.5 5.5-5.5v-9.6c0-6.2 5.1-11.3 11.3-11.3h17.6c6.2 0 11.3 5.1 11.3 11.3v9.6c0 3 2.5 5.5 5.5 5.5s5.5-2.5 5.5-5.5v-9.6c0-12.3-10-22.3-22.3-22.3h-17.6c-12.3 0-22.3 10-22.3 22.3v9.6c.1 3 2.5 5.5 5.5 5.5zm-5.4 38.7c0 3 2.5 5.5 5.5 5.5h124.3c3 0 5.5-2.4 5.6-5.4 0-3-2.4-5.5-5.4-5.6H87.8c-3 0-5.4 2.5-5.4 5.5zm129.8 75.7H87.8c-3 0-5.5 2.5-5.5 5.5s2.5 5.5 5.5 5.5h124.3c3 0 5.5-2.5 5.5-5.5s-2.4-5.5-5.4-5.5zm0-40.6H87.8c-3 0-5.5 2.5-5.5 5.5s2.5 5.5 5.5 5.5h124.3c3 0 5.5-2.5 5.5-5.5s-2.4-5.5-5.4-5.5z" fill="#a9c01b"/></svg>